<svg width="742" height="496" viewBox="0 0 842 596" fill="none" xmlns="http://www.w3.org/2000/svg">
<g clip-path="url(#clip0_108_2)">
<path d="M602.542 252.11L661.403 384.245C673.314 410.984 661.282 442.311 634.529 454.216C607.776 466.121 576.433 454.096 564.522 427.357L516.94 320.542L495.97 369.918V252.11H602.542Z" fill="#2AA8FF"/>
<path d="M608.921 266.431L621.099 293.77C613.744 291.215 605.841 289.828 597.613 289.828C563.63 289.828 535.187 313.508 527.942 345.239L516.94 320.542L505.28 347.996L505.28 266.431H608.921Z" fill="#393939" fill-opacity="0.2"/>
<path d="M431.78 249.79V343.361H333.721L323.556 320.542L313.865 343.361H205.4V327.484L273.381 167.414C281.978 147.169 301.691 135.039 322.397 135.111C342.767 135.04 362.234 146.771 371.051 166.565L420.234 276.976L431.78 249.79Z" fill="#017ACE"/>
<path d="M420.163 276.816L420.234 276.975L466.765 167.414C475.362 147.169 495.075 135.039 515.781 135.111C536.151 135.04 555.618 146.771 564.435 166.565L621.05 293.658C609.632 283.804 594.757 277.845 578.49 277.845C550.224 277.845 526.162 295.836 517.139 320.989L516.94 320.541L471.232 428.167C459.789 455.11 428.66 467.68 401.704 456.244C399.066 455.125 396.567 453.818 394.214 452.344C384.328 446.972 376.068 438.425 371.138 427.357L323.74 320.955C330.875 322.997 338.411 324.091 346.202 324.091C378.987 324.091 407.248 304.727 420.163 276.816Z" fill="#AEDEFF"/>
<path d="M323.262 321.234L289.129 401.604C280.805 405.424 271.529 407.551 261.75 407.551C227.448 407.551 199.335 381.378 196.771 347.802L220.195 292.647C231.475 283.312 245.956 277.701 261.75 277.701C290.179 277.701 314.356 295.88 323.262 321.234Z" fill="black"/>
<path d="M313.244 344.823L277.848 428.167C266.405 455.11 235.277 467.68 208.32 456.244C181.363 444.807 168.786 413.695 180.229 386.752L219.533 294.206C227.853 290.525 237.055 288.481 246.732 288.481C280.145 288.481 307.882 312.845 313.244 344.823Z" fill="#393939"/>
</g>
<defs>
<clipPath id="clip0_108_2">
<rect width="490" height="325.85" fill="white" transform="translate(176 135)"/>
</clipPath>
</defs>
</svg>
