<?xml version="1.0" encoding="UTF-8"?>
<svg width="2446px" height="564px" viewBox="0 0 2446 564" version="1.1" xmlns="http://www.w3.org/2000/svg" xmlns:xlink="http://www.w3.org/1999/xlink">
    <!-- Generator: Sketch 54.1 (76490) - https://sketchapp.com -->
    <title>FullLogo</title>
    <desc>Created with Sketch.</desc>
    <defs>
        <path d="M108.746656,-1.42108547e-14 L168.808741,135.03459 C180.962982,162.360363 168.685833,194.374947 141.386961,206.541164 C114.08809,218.707382 82.1050228,206.418135 69.9507821,179.092362 L21.397769,69.9330459 L7.10542736e-15,120.392706 L0,0 L108.746656,0 Z" id="path-1"></path>
        <path d="M105.756132,0.113126671 L118.183002,28.0518373 C110.677131,25.4416785 102.613169,24.0232811 94.2178194,24.0232811 C59.5405266,24.0232811 30.5171289,48.2230242 23.1241365,80.6509232 L11.897769,55.4112414 L-4.73363571e-11,83.4682497 L-4.79261075e-11,0.113126671 L105.756132,0.113126671 Z" id="path-3"></path>
        <path d="M231,117.308542 L231,212.932676 L130.939734,212.932676 L120.567253,189.612745 L110.678275,212.932676 L0,212.932676 L0,196.707041 L69.3680365,33.1251477 C78.1413993,12.4360325 98.2565929,0.0397867939 119.385252,0.113453174 C140.170833,0.0410046103 160.034337,12.0294305 169.031725,32.2578106 L219.218747,145.090786 L231,117.308542 Z" id="path-5"></path>
        <path d="M98.6460708,144.927392 L98.7187467,145.090786 L146.198552,33.1251477 C154.971915,12.4360325 175.087109,0.0397867939 196.215768,0.113453174 C217.001348,0.0410046103 236.864852,12.0294305 245.862241,32.2578106 L303.632462,162.139714 C291.982126,152.069299 276.803292,145.979026 260.203647,145.979026 C231.361328,145.979026 206.808436,164.365543 197.601021,190.069707 L197.397769,189.612745 L150.756761,299.600354 C139.080802,327.134295 107.316872,339.980402 79.8100375,328.292937 C77.118805,327.149451 74.5680321,325.813485 72.1669306,324.307863 C62.0796328,318.817568 53.6512487,310.082968 48.6202665,298.772061 L0.255245649,190.035399 C7.53586856,192.122272 15.2254238,193.239894 23.1757111,193.239894 C56.6296168,193.239894 85.4669191,173.450943 98.6460708,144.927392 Z" id="path-7"></path>
        <path d="M129.267025,44.6019378 L94.4376637,126.73563 C85.943518,130.638654 76.4784143,132.812375 66.5,132.812375 C31.4974823,132.812375 2.81116421,106.06512 0.194544761,71.7530386 L24.0968125,15.3873347 C35.6068404,5.84737463 50.3839277,0.11312667 66.5,0.11312667 C95.5086099,0.11312667 120.179004,18.6916799 129.267025,44.6019378 Z" id="path-9"></path>
        <path d="M140.044458,57.6919875 L103.926245,142.865015 C92.2502864,170.398956 60.4863565,183.245063 32.9795219,171.557599 C5.47268725,159.870135 -7.36077346,128.074903 4.31518512,100.540963 L44.4211593,5.96410117 C52.9108654,2.20210972 62.3005442,0.11312667 72.1760204,0.11312667 C106.270039,0.11312667 134.573831,25.0117423 140.044458,57.6919875 Z" id="path-11"></path>
    </defs>
    <g id="FullLogo" stroke="none" stroke-width="1" fill="none" fill-rule="evenodd">
        <g id="Logo" transform="translate(117.000000, 119.000000)">
            <g id="Logo-Blue" transform="translate(326.500000, 119.679699)">
                <mask id="mask-2" fill="white">
                    <use xlink:href="#path-1"></use>
                </mask>
                <use id="Combined-Shape" fill="#2AA8FF" xlink:href="#path-1"></use>
            </g>
            <g id="Logo-Blue-Shadow" transform="translate(336.000000, 134.201504)">
                <mask id="mask-4" fill="white">
                    <use xlink:href="#path-3"></use>
                </mask>
                <use id="Combined-Shape" fill-opacity="0.2" fill="#393939" xlink:href="#path-3"></use>
            </g>
            <g id="Logo-Dark-Blue" transform="translate(30.000000, 0.000000)">
                <mask id="mask-6" fill="white">
                    <use xlink:href="#path-5"></use>
                </mask>
                <use id="Combined-Shape" fill="#017ACE" xlink:href="#path-5"></use>
            </g>
            <g id="Logo-Light-Blue" transform="translate(150.500000, 0.000000)">
                <mask id="mask-8" fill="white">
                    <use xlink:href="#path-7"></use>
                </mask>
                <use id="Combined-Shape" fill="#AEDEFF" xlink:href="#path-7"></use>
            </g>
            <g id="Logo-Black-Shadow" transform="translate(21.000000, 145.718797)">
                <mask id="mask-10" fill="white">
                    <use xlink:href="#path-9"></use>
                </mask>
                <use id="Combined-Shape" fill="#000000" xlink:href="#path-9"></use>
            </g>
            <g id="Logo-Black" transform="translate(0.000000, 156.735338)">
                <mask id="mask-12" fill="white">
                    <use xlink:href="#path-11"></use>
                </mask>
                <use id="Combined-Shape" fill="#393939" xlink:href="#path-11"></use>
            </g>
        </g>
        <g id="Memberstack-Copy" transform="translate(736.000000, 177.000000)" fill="#192A33" fill-rule="nonzero">
            <path d="M182.959936,25.4856354 L182.959936,191.881927 C182.959936,194.441763 180.886164,196.516922 178.328039,196.516922 L145.904759,196.516922 C143.346634,196.516922 141.272862,194.441763 141.272862,191.881927 L141.272862,95.5071974 C141.272862,92.9473596 139.19909,90.8722032 136.640965,90.8722032 C135.119319,90.8722032 133.694731,91.6200688 132.829902,92.8728961 L102.819628,136.347051 C101.954799,137.599876 100.530211,138.347744 99.0085654,138.347744 L83.0463323,138.347744 C81.512871,138.347744 80.0788032,137.588291 79.2163811,136.319478 L50.14892,93.554815 C48.7102273,91.4381777 45.8292082,90.8893758 43.7139852,92.3290305 C42.4460196,93.1920294 41.687074,94.627056 41.687074,96.1615427 L41.687074,191.881927 C41.687074,194.441763 39.6133018,196.516922 37.0551769,196.516922 L4.63189711,196.516922 C2.07377213,196.516922 0,194.441763 0,191.881927 L0,25.4856354 C0,22.9257999 2.07377213,20.8506412 4.63189711,20.8506412 L45.6952676,20.8506412 C47.2426061,20.8506412 48.687751,21.6238115 49.5471208,22.9114268 L87.6281146,79.9692229 C89.0488611,82.0979645 91.9251349,82.6711394 94.0524563,81.249443 C94.558864,80.9110073 94.9936115,80.4759691 95.3318211,79.9692229 L133.412815,22.9114268 C134.272185,21.6238115 135.71733,20.8506412 137.264668,20.8506412 L178.328039,20.8506412 C180.886164,20.8506412 182.959936,22.9257999 182.959936,25.4856354 Z M239.795762,143.446238 C241.494133,150.862266 245.006621,156.655951 250.333328,160.827466 C255.660035,164.998982 263.495584,167.084708 273.840206,167.084708 C279.861702,167.084708 285.612918,166.350843 291.094023,164.883086 C294.081383,164.083116 298.831651,162.259114 305.344821,159.411079 L305.344821,159.411079 C307.688915,158.386071 310.419555,159.456669 311.443878,161.802331 C311.498284,161.926917 311.547186,162.053837 311.590441,162.182725 L319.075195,184.485566 C319.82861,186.730565 318.769596,189.182829 316.619405,190.172224 C307.841117,194.211496 301.146816,196.751269 296.536502,197.791545 C288.662237,199.568301 279.244141,200.456667 268.281929,200.456667 C252.996592,200.456667 239.98881,197.559825 229.258196,191.766053 C218.527582,185.97228 210.383243,177.822497 204.824939,167.316458 C199.266635,156.810419 196.487524,144.605056 196.487524,130.700004 C196.487524,116.176949 199.343832,103.701214 205.056534,93.2724256 C210.769235,82.8436377 218.488987,74.9642263 228.216019,69.6339552 C237.943052,64.303684 248.827901,61.6385902 260.870894,61.6385902 C280.170562,61.6385902 295.301274,67.239151 306.263486,78.4404442 C317.225697,89.6417374 322.70672,105.979927 322.70672,127.455508 L322.70672,138.811244 C322.70672,141.371079 320.632948,143.446238 318.074823,143.446238 L239.795762,143.446238 Z M260.870894,95.0105485 C255.31259,95.0105485 250.796534,96.4010328 247.322595,99.1820433 C244.804469,101.489781 242.921554,104.139105 241.673855,107.130008 L241.673855,107.130008 C240.688396,109.492284 241.803247,112.20669 244.163942,113.192806 C244.72923,113.42894 245.335708,113.550525 245.948272,113.550525 L274.885491,113.550525 C277.443618,113.550525 279.517388,111.475367 279.517388,108.915531 C279.517388,108.511895 279.4647,108.10999 279.360658,107.720011 C278.402636,104.129068 276.83268,101.360326 274.650788,99.413793 C271.134675,96.5119413 266.89239,95.0105485 260.870894,95.0105485 Z M495.262777,62.565589 C511.93769,62.565589 524.405087,66.9687895 532.665346,75.7753225 C540.925603,84.5818555 545.055671,98.5639482 545.055671,117.72202 L545.055671,191.881927 C545.055671,194.441763 542.981899,196.516922 540.423774,196.516922 L509.390063,196.516922 C506.831936,196.516922 504.758166,194.441763 504.758166,191.881927 L504.758166,117.72202 C504.758166,111.387496 503.368611,106.559424 500.589458,103.237663 C497.810306,99.9159019 493.024061,98.2550444 486.230577,98.2550444 C477.893121,98.2550444 469.401395,101.963003 460.755143,109.379031 C460.909541,111.078537 460.986738,113.859506 460.986738,117.72202 L460.986738,191.881927 C460.986738,194.441763 458.912966,196.516922 456.354841,196.516922 L425.321131,196.516922 C422.763003,196.516922 420.689233,194.441763 420.689233,191.881927 L420.689233,117.72202 C420.689233,111.387496 419.299678,106.559424 416.520526,103.237663 C413.741374,99.9159019 408.955128,98.2550444 402.161645,98.2550444 C393.978586,98.2550444 385.564057,101.808504 376.917806,108.915531 L376.917806,191.881927 C376.917806,194.441763 374.844034,196.516922 372.285909,196.516922 L341.252198,196.516922 C338.694071,196.516922 336.620301,194.441763 336.620301,191.881927 L336.620301,69.9815798 C336.620301,67.4217443 338.694071,65.3465856 341.252198,65.3465856 L372.285909,65.3465856 C374.844034,65.3465856 376.917806,67.4217443 376.917806,69.9815798 L376.917806,75.5435728 C382.321713,71.063056 387.764136,67.7799691 393.245243,65.6942101 C398.726348,63.6084511 404.709156,62.565589 411.193844,62.565589 C431.728691,62.565589 445.778638,69.1317652 453.344108,82.2643144 C460.291988,75.4662889 467.04677,70.4837211 473.608658,67.3164581 C480.170544,64.1491951 487.388512,62.565589 495.262777,62.565589 Z M636.560682,61.6385902 C648.29488,61.6385902 658.677946,64.2264349 667.71019,69.4022055 C676.742435,74.5779761 683.844607,82.3801383 689.016916,92.8089262 C694.189229,103.237714 696.775344,115.945197 696.775344,130.931754 C696.775344,146.07281 694.189229,158.857543 689.016916,169.286331 C683.844607,179.715119 676.742435,187.517281 667.71019,192.693051 C658.677946,197.868822 648.29488,200.456667 636.560682,200.456667 C624.054497,200.456667 612.320475,196.285214 601.358264,187.942182 L601.358264,191.881927 C601.358264,194.441763 599.284494,196.516922 596.726367,196.516922 L565.692656,196.516922 C563.134531,196.516922 561.060759,194.441763 561.060759,191.881927 L561.060759,5.09166087 C561.060759,2.53182542 563.134531,0.456666667 565.692656,0.456666667 L596.726367,0.456666667 C599.284494,0.456666667 601.358264,2.53182542 601.358264,5.09166087 L601.358264,74.1530745 C612.320475,65.8100433 624.054497,61.6385902 636.560682,61.6385902 Z M627.760077,164.767211 C636.715123,164.767211 643.469907,161.908993 648.024627,156.192472 C652.57935,150.475951 654.856675,142.055795 654.856675,130.931754 C654.856675,119.962212 652.57935,111.619306 648.024627,105.902785 C643.469907,100.186263 636.715123,97.3280456 627.760077,97.3280456 C618.959429,97.3280456 610.158912,100.49526 601.358264,106.829784 L601.358264,155.265473 C610.158912,161.599997 618.959429,164.767211 627.760077,164.767211 Z M747.821299,143.446238 C749.51967,150.862266 753.032158,156.655951 758.358865,160.827466 C763.685572,164.998982 771.521121,167.084708 781.865743,167.084708 C787.887239,167.084708 793.638455,166.350843 799.11956,164.883086 C802.10692,164.083116 806.857188,162.259114 813.370358,159.411079 C815.714452,158.386071 818.445092,159.456669 819.469415,161.802331 C819.523821,161.926917 819.572723,162.053837 819.615978,162.182725 L827.100732,184.485566 C827.854147,186.730565 826.795133,189.182829 824.644942,190.172224 C815.866654,194.211496 809.172353,196.751269 804.562039,197.791545 C796.687774,199.568301 787.269678,200.456667 776.307466,200.456667 C761.022129,200.456667 748.014347,197.559825 737.283733,191.766053 C726.553119,185.97228 718.40878,177.822497 712.850476,167.316458 C707.292172,156.810419 704.513061,144.605056 704.513061,130.700004 C704.513061,116.176949 707.369369,103.701214 713.082071,93.2724256 C718.794772,82.8436377 726.514524,74.9642263 736.241556,69.6339552 C745.968589,64.303684 756.853438,61.6385902 768.896431,61.6385902 C788.196099,61.6385902 803.326811,67.239151 814.289023,78.4404442 C825.251234,89.6417374 830.732257,105.979927 830.732257,127.455508 L830.732257,138.811244 C830.732257,141.371079 828.658485,143.446238 826.10036,143.446238 L747.821299,143.446238 Z M768.896431,95.0105485 C763.338127,95.0105485 758.822071,96.4010328 755.348132,99.1820433 C752.830006,101.489781 750.947091,104.139105 749.699392,107.130008 C748.713933,109.492284 749.828784,112.20669 752.189479,113.192806 C752.754767,113.42894 753.361245,113.550525 753.973809,113.550525 L782.911028,113.550525 C785.469155,113.550525 787.542925,111.475367 787.542925,108.915531 C787.542925,108.511895 787.490237,108.10999 787.386195,107.720011 C786.428173,104.129068 784.858217,101.360326 782.676325,99.413793 C779.160212,96.5119413 774.917927,95.0105485 768.896431,95.0105485 Z M926.303735,67.2005832 L926.303735,93.6200502 C926.303735,96.1798857 924.229963,98.2550444 921.671838,98.2550444 L920.977053,98.2550444 C919.7217,98.2550444 918.46635,98.3024164 917.211001,98.3971626 C906.577789,99.199684 895.944688,103.401026 885.311446,111.001278 L885.311446,191.881927 C885.311446,194.441763 883.237674,196.516922 880.679549,196.516922 L849.645838,196.516922 C847.087711,196.516922 845.013941,194.441763 845.013941,191.881927 L845.013941,69.9815798 C845.013941,67.4217443 847.087711,65.3465856 849.645838,65.3465856 L880.679549,65.3465856 C883.237674,65.3465856 885.311446,67.4217443 885.311446,69.9815798 L885.311446,76.9340711 C891.024147,72.1445531 896.775361,68.5524674 902.565262,66.1577095 C907.924201,63.9411997 913.580664,62.7504697 919.534799,62.5854894 C920.013623,62.5722217 920.494377,62.565589 920.977053,62.565589 L921.671838,62.565589 C924.229963,62.565589 926.303735,64.6407478 926.303735,67.2005832 Z M988.848656,200.456667 C977.886445,200.456667 968.198158,199.568301 959.783502,197.791545 C954.712399,196.72078 949.515172,195.1871 944.191767,193.190486 C942.32581,192.490634 939.680973,191.383761 936.257256,189.869865 L936.257256,189.869865 C934.579673,189.128073 933.497486,187.465628 933.497486,185.630333 L933.497488,160.761767 C933.497488,158.201932 935.571258,156.126773 938.129383,156.126773 C938.838174,156.126773 939.53751,156.289547 940.173541,156.602562 C941.902709,157.453547 943.35457,158.129867 944.52912,158.631522 C949.7034,160.841475 954.903974,162.577698 960.130894,163.840212 C969.08594,166.003221 978.658431,167.084708 988.848656,167.084708 C998.884483,167.084708 1003.90232,164.071992 1003.90232,158.04647 C1003.90232,155.57446 1003.20754,153.720481 1001.81797,152.484477 C1000.42839,151.248472 998.189664,150.244233 995.101717,149.47173 L972.637016,144.836736 C959.513242,142.210226 949.94075,137.729777 943.919254,131.395253 C937.897758,125.060729 934.887055,116.408827 934.887055,105.439285 C934.887055,90.6072298 939.480308,79.5992275 948.666949,72.4149517 C957.853592,65.2306759 971.787742,61.6385902 990.46982,61.6385902 C998.189687,61.6385902 1006.25683,62.4110815 1014.67148,63.9560873 C1019.48861,64.8405531 1024.16654,65.87691 1028.70534,67.0651672 C1030.35743,67.4976817 1032.57194,68.1335821 1035.34888,68.9728683 L1035.34888,68.9728683 C1037.30395,69.5637536 1038.64155,71.3662402 1038.64155,73.4098973 L1038.64155,97.3914894 C1038.64155,99.9513248 1036.56778,102.026484 1034.00965,102.026484 C1033.4511,102.026484 1032.89716,101.92539 1032.37457,101.728087 C1031.21158,101.289005 1030.18024,100.926129 1029.28053,100.639459 C1025.60248,99.4675334 1021.58199,98.4409818 1017.21903,97.5597953 C1008.80437,95.8602889 1000.58284,95.0105485 992.554174,95.0105485 C986.223883,95.0105485 981.823624,95.6285415 979.353267,96.8645462 C976.88291,98.1005508 975.647749,100.031779 975.647749,102.658289 C975.647749,104.666796 976.265329,106.095904 977.500508,106.945659 C978.735687,107.795413 980.82002,108.529278 983.753569,109.147281 L1006.21827,113.782275 C1019.80524,116.563285 1029.60932,121.120984 1035.63082,127.455508 C1041.65231,133.790032 1044.66302,143.214426 1044.66302,155.728973 C1044.66302,170.715529 1039.64518,181.916653 1029.60935,189.332681 C1019.57352,196.748708 1005.98676,200.456667 988.848656,200.456667 Z M1109.0607,110.306029 L1109.0607,149.93523 C1109.0607,155.033749 1109.90987,158.625832 1111.60824,160.711591 C1113.30661,162.79735 1116.39451,163.840212 1120.87204,163.840212 C1123.81827,163.840212 1126.58378,163.633575 1129.16861,163.220296 C1129.16991,163.22009 1129.17121,163.219881 1129.17251,163.219672 L1129.17251,163.219672 C1131.69851,162.815281 1134.07385,164.536555 1134.47797,167.064247 C1134.51668,167.306398 1134.53613,167.551237 1134.53613,167.796465 L1134.53613,192.488087 C1134.53613,194.703109 1132.96995,196.608562 1130.79801,197.035974 C1130.59347,197.076224 1130.40683,197.112692 1130.23808,197.145378 C1126.81806,197.807793 1123.81185,198.33218 1121.21943,198.718544 C1117.59109,199.259295 1113.69262,199.529668 1109.52389,199.529668 C1095.78252,199.529668 1085.55385,196.516952 1078.83757,190.491429 C1072.12128,184.465907 1068.76319,175.814004 1068.76319,164.535462 L1068.76319,110.306029 C1068.76319,107.746194 1066.68942,105.671035 1064.1313,105.671035 L1055.33069,105.671035 C1052.77256,105.671035 1050.69879,103.595876 1050.69879,101.036041 L1050.69879,74.616574 C1050.69879,72.0567385 1052.77256,69.9815798 1055.33069,69.9815798 L1064.1313,69.9815798 C1066.68942,69.9815798 1068.76319,67.906421 1068.76319,65.3465856 L1068.76319,30.584129 C1068.76319,28.0242935 1070.83696,25.9491348 1073.39509,25.9491348 L1104.4288,25.9491348 C1106.98693,25.9491348 1109.0607,28.0242935 1109.0607,30.584129 L1109.0607,65.3465856 C1109.0607,67.906421 1111.13447,69.9815798 1113.6926,69.9815798 L1134.07294,69.9815798 C1136.63107,69.9815798 1138.70484,72.0567385 1138.70484,74.616574 L1138.70484,101.036041 C1138.70484,103.595876 1136.63107,105.671035 1134.07294,105.671035 L1113.6926,105.671035 C1111.13447,105.671035 1109.0607,107.746194 1109.0607,110.306029 Z M1204.63933,65.3465856 C1221.62304,65.3465856 1234.55362,67.6254361 1243.43147,72.183202 C1252.30932,76.7409679 1258.21493,82.8050259 1261.14847,90.3755543 C1264.08202,97.9460827 1265.54878,107.602224 1265.54878,119.344268 L1265.54878,191.881927 C1265.54878,194.441763 1263.47501,196.516922 1260.91688,196.516922 L1229.88317,196.516922 C1227.32504,196.516922 1225.25127,194.441763 1225.25127,191.881927 L1225.25127,185.856435 C1219.84737,190.800453 1214.52074,194.315288 1209.27123,196.401047 C1204.02172,198.486806 1198.2319,199.529668 1191.90161,199.529668 C1177.07947,199.529668 1165.46124,195.628586 1157.04659,187.826307 C1148.63193,180.024029 1144.42467,169.170525 1144.42467,155.265473 C1144.42467,141.20592 1148.70913,130.391042 1157.27818,122.820514 C1165.84724,115.249985 1177.77425,111.464778 1193.05959,111.464778 C1205.72017,111.464778 1216.45062,113.782252 1225.25127,118.417269 C1225.09687,114.091253 1224.4407,110.653668 1223.28272,108.104407 C1222.12474,105.555146 1219.80881,103.585295 1216.33487,102.194789 C1212.86093,100.804284 1207.80449,100.109042 1201.16541,100.109042 L1179.39549,100.109042 C1176.83737,100.109042 1174.76359,98.0338834 1174.76359,95.4740479 L1174.76359,69.9815798 C1174.76359,67.4217443 1176.83737,65.3465856 1179.39549,65.3465856 L1204.63933,65.3465856 Z M1194.47062,168.475207 C1202.34489,168.475207 1210.60502,164.921747 1219.25127,157.81472 L1219.25127,145.531985 C1211.8402,141.978472 1204.35204,140.201742 1196.78657,140.201742 C1191.22827,140.201742 1186.90521,141.399105 1183.81726,143.793862 C1180.72931,146.18862 1179.18536,149.857955 1179.18536,154.801974 C1179.18536,159.900493 1180.49772,163.453953 1183.12247,165.46246 C1185.74723,167.470968 1189.52991,168.475207 1194.47062,168.475207 Z M1343.23172,200.456667 C1321.61609,200.302166 1305.09582,194.160861 1293.67042,182.032565 C1282.24502,169.904268 1276.5324,152.793587 1276.5324,130.700004 C1276.5324,108.760922 1282.24502,91.8047362 1293.67042,79.8309424 C1305.09582,67.8571487 1321.61609,61.7930908 1343.23172,61.6385902 C1351.10598,61.6385902 1357.82217,62.102085 1363.38047,63.0290885 C1366.83621,63.6054291 1370.38143,64.4803654 1374.01618,65.6539065 C1374.94936,65.955202 1376.19116,66.396136 1377.74157,66.9767107 L1377.74157,66.9767107 C1379.55098,67.6542704 1380.75009,69.3844697 1380.75009,71.3177095 L1380.75008,97.6473387 C1380.75008,100.207174 1378.67631,102.282333 1376.11819,102.282333 C1375.5262,102.282333 1374.9397,102.168776 1374.39043,101.947807 C1374.09131,101.827469 1373.81467,101.719207 1373.56053,101.623019 C1370.47922,100.456796 1367.51047,99.5658926 1364.65424,98.9502935 C1359.63633,97.8687895 1354.03951,97.3280456 1347.86362,97.3280456 C1337.51899,97.4825462 1330.03084,100.340764 1325.39892,105.902785 C1320.767,111.464806 1318.45107,119.653214 1318.45107,130.468254 C1318.45107,141.592296 1320.6898,150.0897 1325.16732,155.960722 C1329.64484,161.831744 1336.82421,164.767211 1346.70564,164.767211 C1352.26395,164.767211 1357.62917,163.917471 1362.80148,162.217964 C1365.64916,161.282282 1368.5553,160.065621 1371.51995,158.567969 C1372.21217,158.218284 1373.06005,157.759116 1374.06361,157.190467 L1374.06361,157.190467 C1376.28962,155.929126 1379.116,156.712356 1380.3765,158.93986 C1380.51906,159.191791 1380.63772,159.45653 1380.73092,159.730611 L1388.99928,184.045707 C1389.72578,186.182143 1388.80899,188.531649 1386.828,189.610199 C1384.95136,190.631934 1383.43018,191.416986 1382.26446,191.96536 C1370.23067,197.626254 1357.21984,200.456667 1343.23172,200.456667 Z M1450.24284,152.716226 L1439.58948,164.071962 L1439.58948,191.881927 C1439.58948,194.441763 1437.51571,196.516922 1434.95758,196.516922 L1403.92388,196.516922 C1401.36575,196.516922 1399.29198,194.441763 1399.29198,191.881927 L1399.29198,5.09166087 C1399.29198,2.53182542 1401.36575,0.456666667 1403.92388,0.456666667 L1433.38739,0.456666667 L1434.95758,0.456666667 C1437.51571,0.456666667 1439.58948,2.53182542 1439.58948,5.09166087 L1439.58948,6.54667825 L1439.58948,113.782275 L1479.20911,71.4482982 C1480.08484,70.5125647 1481.30877,69.9815798 1482.58993,69.9815798 L1518.0005,69.9815798 C1520.55863,69.9815798 1522.6324,72.0567385 1522.6324,74.616574 C1522.6324,75.8008289 1522.1794,76.9401638 1521.36639,77.8007316 L1476.64466,125.138011 L1527.00431,189.011028 C1528.58881,191.020701 1528.24522,193.935209 1526.2369,195.520762 C1525.4196,196.165999 1524.40894,196.516922 1523.36792,196.516922 L1486.99709,196.516922 C1485.57838,196.516922 1484.23793,195.866333 1483.35961,194.751478 L1450.24284,152.716226 Z" id="Memberstack"></path>
        </g>
    </g>
</svg>